<svg version="1.1" id="Layer_1" xmlns="http://www.w3.org/2000/svg" xmlns:xlink="http://www.w3.org/1999/xlink" x="0" y="0" viewBox="0 0 860 101" xml:space="preserve" enable-background="new 0 0 860 101">
  <style type="text/css">

	.st0{fill:#F4833A;}
	.st1{fill:#C1D9AE;}
	.st2{fill:#522F2F;}

  </style>
  <path class="st0" d="M0 63c1.2-0.9 2.1-2 3.9-1.7 1 0.2 2 0 3 0 201.7 0 403.3-0.3 605 0.2 66.1 0.2 132.3 0 198.4 0.4 10.3 0.1 20.7 0.1 31 0.1 1.2 0 2.4-0.1 3.5 0.1 1.2 0.2 1.4 1.2 1.1 2.3 -1.6 0.8-3.2 0.4-4.9 0.4 -183.2 0-366.3 0-549.5 0 -95.5 0-191-0.1-286.5-0.1 -1.7 0-3.3 0.1-5 0.2C0 64.3 0 63.7 0 63z"/>
  <path class="st0" d="M857 101c-1.3-8.6-2.5-17.2-3.8-26.2 -8.7 0.5-16.9 1-25.2 2.1 0 8.2 0 16.2 0 24.1 -0.7 0-1.3 0-2 0 -1.2-2-2.1-3.9-2-6.4 0.3-7.3-1.4-14.5-0.8-22.2 9.3-1.9 18.7-0.7 28.6-1.6 0.8-13.7 0.1-27.4 0.5-40.8 1-1.2 2-1 3.1-1 0.2 0.4 0.6 0.7 0.7 1.2 0.3 1.1 0.5 2.3 0.6 3.4 0.5 8.6 0.8 17.3 1.3 25.9 0.5 7.6 1.1 15.3 1.1 22.9 0 0.7 0.2 1.3 0.9 1.5 0 5.7 0 11.3 0 17C859 101 858 101 857 101z"/>
  <path class="st1" d="M72 0c0 4.7 0 9.3 0 13.9 -3.4 6.2-8.4 9.9-15.8 11.3 1.4-4.8 2.5-9 3.9-13.2 1.3-3.8 3.3-7.2 7.4-8.9C69 2.6 70.2 1.9 70 0 70.7 0 71.3 0 72 0z"/>
  <path class="st2" d="M94.5 27c3.2-2.5 8.7-2.4 13.9 0.2 0.3 0 0.7 0 1-0.1 6-3.6 10.4-1.6 11 5.4 0.4 4 0 8 0 12 0 2 0 4 0 5.4 0.8 1.9 2.8 1.5 3.3 2.9 0 0.6-0.3 1-0.8 1.1 -2.1 0.2-4.1 0.1-6.2-0.7 -1.7-0.6-3.9 1.1-6.2 1 -2.5-0.1-4.7-0.6-5.8-3.1 -1.1-2.6-0.9-5.2 0.9-7.5 2.1-2.8 5.2-4.1 8.4-5.2 1.1-0.4 2.4-0.1 3.3-1 0.6-1.5 0.4-3.2 0.2-4.8 -0.2-2-0.9-4-3.3-4.5 -1.9-0.4-3.7 0.9-4.8 3.6 -0.4 1.1-0.6 2.2-0.9 3.4 -0.2 0.8-0.4 1.7-1.6 1.8 -2.1-0.9-1.1-2.8-1.2-4.3 -0.1-1.6 0-3.3 0-5.2 -2.9 0.1-4 1.5-4.8 3.7 -2.3 6.4-4.6 12.8-7 19.2 -0.5 1.3-0.7 2.9-2.7 3.7 -2.9-3.4-3.6-7.8-5.1-11.7 -1.6-4-2.9-8.1-4.3-11.9 -1.4-1.1-2.4-0.7-3.7-0.6 0 7.1 0 14 0 21.7 0.2 0.8 2.6-0.4 2.7 1.6 -0.3 1.7-3 1.7-6.4-0.2 -2 0.9-4.2 1.5-6.6 1.4 -5.3-0.3-8-4.8-5.3-9.5 1.4-2.4 3.6-3.8 6-5.1 1.9-1 4.1-1.3 6.3-2 0.6-2.1 0.6-4.3 0-6.3 -0.5-1.6-1.3-3.2-3.3-3.3 -1.8-0.1-3.2 0.9-4 2.5 -0.6 1.3-1.1 2.8-1.4 4.2 -0.3 1-0.3 2-2 2.1 -1.3-3.4-0.7-6.9-0.4-10.2 1.4-1 2 0.1 2.8 0.6 6-3.1 7.2-2.9 11.2 2.1 1-1.7 2.2-3.1 4.5-2.7 1.7 0.3 3.6 0.1 5.3 0.1 1.6 2.6-1.7 2.4-2 4.9 1.6 5 3.2 10.8 5.9 17.3 3.3-6.9 5.5-13.4 7.3-19.8C97.5 27.4 95.7 28.6 94.5 27zM75 41.2c-4.2-0.6-7.1 1.1-9.6 3.7 -1 1.1-1.5 2.5-0.8 4.1 0.7 1.7 2.1 2.6 3.8 2.7 2.5 0.2 4.6-0.8 5.8-3.1C75.3 46.4 76 44.1 75 41.2zM117.3 41.3c-3.8-0.9-6.6 0.9-9.1 3.1 -1.5 1.3-1.9 3.2-1.1 5 1 2 2.9 2.7 5 2.4 2.2-0.3 4-1.6 4.9-3.8C117.9 45.9 118.3 43.9 117.3 41.3z"/>
  <path class="st2" d="M39.9 27.8c1.6 0.2 2.5-0.8 3.5-1.2 4.5-1.7 8.2 0.2 9.7 4.9 0.6 1.8 0.5 3.6 0.5 5.4 0 4.5 0 8.9 0 13.4 0.6 1.6 2.9 0.9 3.4 2.5 -0.2 0.3-0.3 0.8-0.4 0.8 -2.8 0.4-5.6 0.4-8.4-0.1 3.8-6.5 2.2-13.4 2.4-20 0-1.9-1-3.6-3.1-4.1 -2-0.4-4 0-5.5 1.6 -1.8 2-2.4 4.4-2.4 6.9 -0.1 3.8 0 7.6 0 11.1 1 1.5 3.4 0.3 3.5 3 -3.1 1.4-6.4 0.9-9.5 0.4 -0.7-2.8 2.1-1.8 2.9-3.7 0.3-10.7 0.5-21.9 0.8-32.7 -1-2.2-3.7-0.3-4.2-2.8 2-2.2 4.4-0.5 7-1.3C39.9 17.7 39.9 22.8 39.9 27.8z"/>
  <path class="st2" d="M30.4 26.5c-0.4 2.9 1.2 6.2-1 9.1 -1.9-0.6-1.4-1.9-1.4-3 0-2.3-1-3.9-3.1-4.5 -2.3-0.7-3.8 0.5-5.2 2.1 -1.8 2.1-2.4 4.7-2.9 7.3 -0.5 3-0.6 6 0.2 8.9 0.7 2.6 2.2 4.5 5 5 2.6 0.5 4.5-0.7 6-2.8 0.5-0.8 1.1-1.6 1.6-2.3 1 0.1 1.8 0.4 1.7 1.1 -0.8 3.1-2.7 5.5-5.8 6.2 -3.5 0.8-6.9 0.4-9.4-3 -3.3-4.6-3.5-9.6-2.2-14.8 0.5-2.2 1.7-4.3 3-6.3 2.4-3.9 5.1-4.9 9.7-3.8C27.6 26.3 29 25.4 30.4 26.5z"/>
  <path class="st0" d="M842.8 53.2c0 1.7 0.2 3.1 0 4.3 -0.4 2.1-1.6 3.3-4.1 3.6 -3.9 0.3-7.4-1.2-11.3-1.3 -3-3.7 3.2-3.8 2.2-6.6C834.1 53.2 838.2 53.2 842.8 53.2z"/>
</svg>
