<svg id="Layer_1" xmlns="http://www.w3.org/2000/svg" viewBox="0 0 860 101"><style>.st0{fill:#f4833a}.st1{fill:#c1d9ae}.st2{fill:#522f2f}</style><path class="st0" d="M0 63c1.2-.9 2.1-2 3.9-1.7 1 .2 2 0 3 0 201.7 0 403.3-.3 605 .2 66.1.2 132.3 0 198.4.4 10.3.1 20.7.1 31 .1 1.2 0 2.4-.1 3.5.1 1.2.2 1.4 1.2 1.1 2.3-1.6.8-3.2.4-4.9.4H291.5c-95.5 0-191-.1-286.5-.1-1.7 0-3.3.1-5 .2V63z"/><path class="st0" d="M857 101c-1.3-8.6-2.5-17.2-3.8-26.2-8.7.5-16.9 1-25.2 2.1V101h-2c-1.2-2-2.1-3.9-2-6.4.3-7.3-1.4-14.5-.8-22.2 9.3-1.9 18.7-.7 28.6-1.6.8-13.7.1-27.4.5-40.8 1-1.2 2-1 3.1-1 .2.4.6.7.7 1.2.3 1.1.5 2.3.6 3.4.5 8.6.8 17.3 1.3 25.9.5 7.6 1.1 15.3 1.1 22.9 0 .7.2 1.3.9 1.5v17c-1 .1-2 .1-3 .1z"/><path class="st1" d="M72 0v13.9c-3.4 6.2-8.4 9.9-15.8 11.3 1.4-4.8 2.5-9 3.9-13.2 1.3-3.8 3.3-7.2 7.4-8.9C69 2.6 70.2 1.9 70 0h2z"/><path class="st2" d="M94.5 27c3.2-2.5 8.7-2.4 13.9.2.3 0 .7 0 1-.1 6-3.6 10.4-1.6 11 5.4.4 4 0 8 0 12v5.4c.8 1.9 2.8 1.5 3.3 2.9 0 .6-.3 1-.8 1.1-2.1.2-4.1.1-6.2-.7-1.7-.6-3.9 1.1-6.2 1-2.5-.1-4.7-.6-5.8-3.1-1.1-2.6-.9-5.2.9-7.5 2.1-2.8 5.2-4.1 8.4-5.2 1.1-.4 2.4-.1 3.3-1 .6-1.5.4-3.2.2-4.8-.2-2-.9-4-3.3-4.5-1.9-.4-3.7.9-4.8 3.6-.4 1.1-.6 2.2-.9 3.4-.2.8-.4 1.7-1.6 1.8-2.1-.9-1.1-2.8-1.2-4.3-.1-1.6 0-3.3 0-5.2-2.9.1-4 1.5-4.8 3.7-2.3 6.4-4.6 12.8-7 19.2-.5 1.3-.7 2.9-2.7 3.7-2.9-3.4-3.6-7.8-5.1-11.7-1.6-4-2.9-8.1-4.3-11.9-1.4-1.1-2.4-.7-3.7-.6v21.7c.2.8 2.6-.4 2.7 1.6-.3 1.7-3 1.7-6.4-.2-2 .9-4.2 1.5-6.6 1.4-5.3-.3-8-4.8-5.3-9.5 1.4-2.4 3.6-3.8 6-5.1 1.9-1 4.1-1.3 6.3-2 .6-2.1.6-4.3 0-6.3-.5-1.6-1.3-3.2-3.3-3.3-1.8-.1-3.2.9-4 2.5-.6 1.3-1.1 2.8-1.4 4.2-.3 1-.3 2-2 2.1-1.3-3.4-.7-6.9-.4-10.2 1.4-1 2 .1 2.8.6 6-3.1 7.2-2.9 11.2 2.1 1-1.7 2.2-3.1 4.5-2.7 1.7.3 3.6.1 5.3.1 1.6 2.6-1.7 2.4-2 4.9 1.6 5 3.2 10.8 5.9 17.3 3.3-6.9 5.5-13.4 7.3-19.8-1.2-1.8-3-.6-4.2-2.2zM75 41.2c-4.2-.6-7.1 1.1-9.6 3.7-1 1.1-1.5 2.5-.8 4.1.7 1.7 2.1 2.6 3.8 2.7 2.5.2 4.6-.8 5.8-3.1 1.1-2.2 1.8-4.5.8-7.4zm42.3.1c-3.8-.9-6.6.9-9.1 3.1-1.5 1.3-1.9 3.2-1.1 5 1 2 2.9 2.7 5 2.4 2.2-.3 4-1.6 4.9-3.8.9-2.1 1.3-4.1.3-6.7zM39.9 27.8c1.6.2 2.5-.8 3.5-1.2 4.5-1.7 8.2.2 9.7 4.9.6 1.8.5 3.6.5 5.4v13.4c.6 1.6 2.9.9 3.4 2.5-.2.3-.3.8-.4.8-2.8.4-5.6.4-8.4-.1 3.8-6.5 2.2-13.4 2.4-20 0-1.9-1-3.6-3.1-4.1-2-.4-4 0-5.5 1.6-1.8 2-2.4 4.4-2.4 6.9-.1 3.8 0 7.6 0 11.1 1 1.5 3.4.3 3.5 3-3.1 1.4-6.4.9-9.5.4-.7-2.8 2.1-1.8 2.9-3.7.3-10.7.5-21.9.8-32.7-1-2.2-3.7-.3-4.2-2.8 2-2.2 4.4-.5 7-1.3-.2 5.8-.2 10.9-.2 15.9zM30.4 26.5c-.4 2.9 1.2 6.2-1 9.1-1.9-.6-1.4-1.9-1.4-3 0-2.3-1-3.9-3.1-4.5-2.3-.7-3.8.5-5.2 2.1-1.8 2.1-2.4 4.7-2.9 7.3-.5 3-.6 6 .2 8.9.7 2.6 2.2 4.5 5 5 2.6.5 4.5-.7 6-2.8.5-.8 1.1-1.6 1.6-2.3 1 .1 1.8.4 1.7 1.1-.8 3.1-2.7 5.5-5.8 6.2-3.5.8-6.9.4-9.4-3-3.3-4.6-3.5-9.6-2.2-14.8.5-2.2 1.7-4.3 3-6.3 2.4-3.9 5.1-4.9 9.7-3.8 1 .6 2.4-.3 3.8.8z"/><path class="st0" d="M842.8 53.2c0 1.7.2 3.1 0 4.3-.4 2.1-1.6 3.3-4.1 3.6-3.9.3-7.4-1.2-11.3-1.3-3-3.7 3.2-3.8 2.2-6.6h13.2z"/></svg>